<svg width="32" height="32" viewBox="0 0 32 32" fill="none" xmlns="http://www.w3.org/2000/svg">
<rect width="32" height="32" rx="8" fill="#161617"/>
<path d="M6 5.5L8 7.5M26 5.5L24 7.5M26 25.5L24 23.5M6 25.5L8 23.5M6 19.5H7.5M12 5.5V7M26 11.5H24.5M20 25.5V24M22 19.5H25.5M20 5.5V9.5M6 11.5H10M12 25.5V21.5M15.4343 11.0657L11.5657 14.9343C11.3677 15.1323 11.2687 15.2313 11.2316 15.3455C11.1989 15.4459 11.1989 15.5541 11.2316 15.6545C11.2687 15.7687 11.3677 15.8677 11.5657 16.0657L15.4343 19.9343C15.6323 20.1323 15.7313 20.2313 15.8455 20.2684C15.9459 20.3011 16.0541 20.3011 16.1545 20.2684C16.2687 20.2313 16.3677 20.1323 16.5657 19.9343L20.4343 16.0657C20.6323 15.8677 20.7313 15.7687 20.7684 15.6545C20.8011 15.5541 20.8011 15.4459 20.7684 15.3455C20.7313 15.2313 20.6323 15.1323 20.4343 14.9343L16.5657 11.0657C16.3677 10.8677 16.2687 10.7687 16.1545 10.7316C16.0541 10.6989 15.9459 10.6989 15.8455 10.7316C15.7313 10.7687 15.6323 10.8677 15.4343 11.0657Z" stroke="#47D2DA" stroke-width="2" stroke-linecap="round" stroke-linejoin="round"/>
</svg>
