<svg width="24" height="25" viewBox="0 0 24 25" fill="none" xmlns="http://www.w3.org/2000/svg">
<path d="M16.5193 19.5474C16.5193 17.0516 14.4961 15.0283 12.0002 15.0283C9.50434 15.0283 7.48104 17.0516 7.48104 19.5474M12.0002 12.3168C10.5027 12.3168 9.2887 11.1028 9.2887 9.60528C9.2887 8.10777 10.5027 6.89379 12.0002 6.89379C13.4977 6.89379 14.7117 8.10777 14.7117 9.60528C14.7117 11.1028 13.4977 12.3168 12.0002 12.3168ZM20.1347 6.17069V16.6551C20.1347 17.6675 20.1349 18.1738 19.9378 18.5605C19.7645 18.9006 19.4876 19.1771 19.1475 19.3504C18.7608 19.5474 18.255 19.5474 17.2426 19.5474H13.8096L12.0002 22.2785L10.1838 19.5474H6.75816C5.74577 19.5474 5.2392 19.5474 4.85252 19.3504C4.51239 19.1771 4.23605 18.9006 4.06275 18.5605C3.86572 18.1738 3.86572 17.6675 3.86572 16.6551V6.17069C3.86572 5.1583 3.86572 4.65217 4.06275 4.26549C4.23605 3.92536 4.51239 3.6488 4.85252 3.4755C5.2392 3.27847 5.74577 3.27847 6.75816 3.27847H17.2426C18.255 3.27847 18.7608 3.27847 19.1475 3.4755C19.4876 3.6488 19.7645 3.92536 19.9378 4.26549C20.1349 4.65217 20.1347 5.1583 20.1347 6.17069Z" stroke="#282828" stroke-width="1.5" stroke-linecap="round" stroke-linejoin="round"/>
</svg>
