<svg width="28" height="29" viewBox="0 0 28 29" fill="none" xmlns="http://www.w3.org/2000/svg">
<path d="M10.8081 17.3123C10.7129 17.3123 8.61846 17.3123 7.66642 17.3123C7.15867 17.3123 7 17.1219 7 16.6458C7 15.3765 7 14.0753 7 12.806C7 12.2982 7.19041 12.1395 7.66642 12.1395H10.8081C10.8081 12.0443 10.8081 10.2037 10.8081 9.3469C10.8081 8.07752 11.0303 6.87161 11.665 5.7609C12.3314 4.61846 13.2834 3.85683 14.4893 3.41255C15.2827 3.12694 16.0761 3 16.9329 3H20.0429C20.4872 3 20.6776 3.19041 20.6776 3.63469V7.25243C20.6776 7.69671 20.4872 7.88712 20.0429 7.88712C19.1861 7.88712 18.3292 7.88712 17.4724 7.91885C16.6156 7.91885 16.1713 8.3314 16.1713 9.21997C16.1395 10.172 16.1713 11.0923 16.1713 12.0761H19.8525C20.3602 12.0761 20.5506 12.2665 20.5506 12.7742V16.6141C20.5506 17.1219 20.392 17.2805 19.8525 17.2805C18.71 17.2805 16.2665 17.2805 16.1713 17.2805V27.626C16.1713 28.1655 16.0126 28.3559 15.4414 28.3559C14.1085 28.3559 12.8074 28.3559 11.4746 28.3559C10.9985 28.3559 10.8081 28.1655 10.8081 27.6895C10.8081 24.3573 10.8081 17.4075 10.8081 17.3123Z" fill="#33CC99"/>
</svg>
