<svg width="12" height="14" viewBox="0 0 12 14" fill="none" xmlns="http://www.w3.org/2000/svg">
<path d="M5.69034 10V5.09091H6.4446V10H5.69034ZM6.07386 4.27273C5.92685 4.27273 5.80007 4.22266 5.69354 4.12251C5.58913 4.02237 5.53693 3.90199 5.53693 3.76136C5.53693 3.62074 5.58913 3.50036 5.69354 3.40021C5.80007 3.30007 5.92685 3.25 6.07386 3.25C6.22088 3.25 6.34659 3.30007 6.45099 3.40021C6.55753 3.50036 6.6108 3.62074 6.6108 3.76136C6.6108 3.90199 6.55753 4.02237 6.45099 4.12251C6.34659 4.22266 6.22088 4.27273 6.07386 4.27273Z" fill="#878787"/>
<circle cx="6" cy="7" r="5.5" stroke="#878787"/>
</svg>
