<svg width="24" height="25" viewBox="0 0 24 25" fill="none" xmlns="http://www.w3.org/2000/svg">
<path d="M12 14.2785C11.5234 14.2785 11.0578 14.3261 10.608 14.4169M12 14.2785C12.4879 14.2785 12.9499 14.3255 13.392 14.4169M12 14.2785C12.4766 14.2785 12.9422 14.3261 13.392 14.4169M12 14.2785C11.5121 14.2785 11.0501 14.3255 10.608 14.4169M10.608 14.4169C7.40886 15.0624 5 17.8891 5 21.2785M10.608 14.4169C9.89444 14.5644 9.23255 14.8275 8.5968 15.1953M15.4032 15.1953C14.7675 14.8275 14.1056 14.5644 13.392 14.4169M13.392 14.4169C16.5911 15.0624 19 17.8891 19 21.2785M12 11.2785C9.79086 11.2785 8 9.48761 8 7.27847C8 5.06933 9.79086 3.27847 12 3.27847C14.2091 3.27847 16 5.06933 16 7.27847C16 9.48761 14.2091 11.2785 12 11.2785Z" stroke="#282828" stroke-width="1.5" stroke-linecap="round" stroke-linejoin="round"/>
</svg>
