<svg width="19" height="16" viewBox="0 0 19 16" fill="none" xmlns="http://www.w3.org/2000/svg">
<path d="M11.4445 2.37027C9.75233 3.07408 6.37045 4.53081 1.29882 6.74043C0.475265 7.06793 0.043851 7.38832 0.00457704 7.7016C-0.0617958 8.23105 0.60122 8.43953 1.50408 8.72343L1.50417 8.72346C1.62695 8.76206 1.75417 8.80206 1.88459 8.84446C2.77286 9.1332 3.96774 9.471 4.58891 9.48442C5.15237 9.49659 5.78125 9.2643 6.47556 8.78753C11.2141 5.58885 13.6602 3.97209 13.8138 3.93723C13.9221 3.91264 14.0723 3.88172 14.174 3.97214C14.2757 4.06255 14.2657 4.23378 14.2549 4.27972C14.1893 4.55972 11.5868 6.9792 10.2399 8.23136L10.2399 8.23145L10.2393 8.232C9.8197 8.62206 9.52212 8.89873 9.46126 8.96193C9.32489 9.10358 9.1859 9.23756 9.05232 9.36634L9.05229 9.36637C8.22706 10.1619 7.60822 10.7585 9.08655 11.7327C9.79685 12.2007 10.3653 12.5878 10.9323 12.974L10.9326 12.9742L10.9328 12.9743C11.5521 13.3961 12.1698 13.8167 12.969 14.3406C13.1727 14.4741 13.3671 14.6127 13.5566 14.7478L13.5566 14.7478C14.2774 15.2617 14.925 15.7233 15.725 15.6497C16.1899 15.6069 16.67 15.1698 16.9139 13.8661C17.4903 10.785 18.6231 4.1093 18.8849 1.3584C18.9079 1.11738 18.879 0.808928 18.8558 0.673526C18.8327 0.538123 18.7843 0.345202 18.6082 0.202388C18.3998 0.0332548 18.078 -0.00241225 17.9341 0.000122896C17.2798 0.0116497 16.2758 0.360728 11.4445 2.37027Z" fill="#33CC99"/>
</svg>
