<svg width="28" height="28" viewBox="0 0 28 28" fill="none" xmlns="http://www.w3.org/2000/svg">
<path d="M22.1066 10.1215C22.1195 10.3011 22.1195 10.4807 22.1195 10.662C22.1195 16.1854 17.7266 22.5556 9.694 22.5556V22.5522C7.32113 22.5556 4.99756 21.905 3 20.6783C3.34503 20.718 3.6918 20.7379 4.03942 20.7387C6.00586 20.7404 7.91608 20.1088 9.46311 18.9458C7.59439 18.9119 5.9557 17.7456 5.38324 16.043C6.03785 16.1639 6.71235 16.139 7.35486 15.971C5.31752 15.577 3.85177 13.8636 3.85177 11.8738C3.85177 11.8555 3.85177 11.8382 3.85177 11.8208C4.45883 12.1444 5.13852 12.324 5.83377 12.3439C3.9149 11.1164 3.32341 8.67294 4.48217 6.76255C6.69938 9.37403 9.97072 10.9616 13.4824 11.1296C13.1305 9.6778 13.6113 8.15644 14.7458 7.13586C16.5047 5.55325 19.2711 5.63436 20.9244 7.31713C21.9025 7.13255 22.8399 6.78904 23.6977 6.30234C23.3717 7.26995 22.6894 8.09188 21.778 8.61417C22.6436 8.5165 23.4893 8.29467 24.2857 7.95613C23.6994 8.7971 22.9609 9.52964 22.1066 10.1215Z" fill="#33CC99"/>
</svg>
