<svg width="24" height="24" viewBox="0 0 24 24" fill="none" xmlns="http://www.w3.org/2000/svg">
<path d="M11.0085 23.2381C7.98335 21.6601 5.04133 20.1255 2.03051 18.555C2.73236 18.3343 2.84331 17.8973 2.84085 17.3512C2.8247 13.7728 2.82827 10.1943 2.83789 6.6159C2.83925 6.09928 2.75406 5.65808 2.00006 5.45824C3.3754 4.7411 4.64608 4.07863 6.0324 3.35581C6.0324 3.78093 6.0324 4.08009 6.0324 4.37924C6.03573 8.6611 6.03573 12.9486 6.03573 17.2275C6.03055 17.8807 6.22065 18.2209 6.86863 18.5484C7.39208 18.8131 7.47062 18.8375 7.87104 19.0407C7.87104 18.7469 7.87326 18.5679 7.87104 18.3602C7.87104 13.247 7.88214 8.20629 7.87104 2.9974C7.86969 2.56446 7.97867 2.30035 8.41891 2.09426C9.27252 1.69479 10.0931 1.23753 11.0085 0.761964L11.0085 23.2381Z" fill="#33CC99"/>
<path d="M12.9917 23.2379C16.0169 21.6599 18.9588 20.1253 21.9697 18.5547C21.2678 18.334 21.1568 17.8971 21.1593 17.351C21.1755 13.7725 21.1719 10.1941 21.1623 6.61566C21.1609 6.09903 21.2461 5.65784 22.0001 5.458C20.6248 4.74086 19.3541 4.07839 17.9678 3.35556C17.9678 3.78069 17.9678 4.07984 17.9678 4.37899C17.9644 8.66085 17.9644 12.9484 17.9644 17.2272C17.9696 17.8804 17.7795 18.2207 17.1315 18.5482C16.6081 18.8128 16.5295 18.8373 16.1291 19.0405C16.1291 18.7467 16.1269 18.5677 16.1291 18.3599C16.1291 13.2468 16.118 8.20604 16.1291 2.99716C16.1305 2.56422 16.0215 2.3001 15.5813 2.09401C14.7276 1.69455 13.9071 1.23728 12.9917 0.761719L12.9917 23.2379Z" fill="#33CC99"/>
<path d="M14.5582 2.34595L14.9104 2.9919L15.698 3.09545L15.1281 3.59824L15.2626 4.30812L14.5582 3.97293L13.8539 4.30812L13.9884 3.59824L13.4186 3.09545L14.2061 2.9919L14.5582 2.34595Z" fill="#33CC99"/>
</svg>
