<svg width="24" height="24" viewBox="0 0 24 24" fill="none" xmlns="http://www.w3.org/2000/svg">
<path d="M17.5949 10.9319C19.1972 10.9319 20.497 9.63295 20.497 8.03061C20.497 6.42828 19.1972 5.12936 17.5949 5.12936" stroke="#F6F6F6" strokeWidth="1.5" strokeLinecap="round" strokeLinejoin="round"/>
<path d="M18.9291 14.0847C19.4076 14.1177 19.8834 14.1856 20.3518 14.291C21.0026 14.4184 21.7854 14.6852 22.0641 15.2691C22.2419 15.6431 22.2419 16.0785 22.0641 16.4534C21.7864 17.0373 21.0026 17.3032 20.3518 17.437" stroke="#F6F6F6" strokeWidth="1.5" strokeLinecap="round" strokeLinejoin="round"/>
<path d="M6.29001 10.9319C4.68768 10.9319 3.38785 9.63295 3.38785 8.03061C3.38785 6.42828 4.68768 5.12936 6.29001 5.12936" stroke="#F6F6F6" strokeWidth="1.5" strokeLinecap="round" strokeLinejoin="round"/>
<path d="M4.9558 14.0847C4.4773 14.1177 4.00155 14.1856 3.53313 14.291C2.8823 14.4184 2.09947 14.6852 1.82172 15.2691C1.64297 15.6431 1.64297 16.0785 1.82172 16.4534C2.09855 17.0373 2.8823 17.3032 3.53313 17.437" stroke="#F6F6F6" strokeWidth="1.5" strokeLinecap="round" strokeLinejoin="round"/>
<path fill-rule="evenodd" clip-rule="evenodd" d="M11.9378 14.7096C15.1846 14.7096 17.9584 15.2009 17.9584 17.1671C17.9584 19.1325 15.2029 19.6421 11.9378 19.6421C8.69003 19.6421 5.91711 19.1508 5.91711 17.1846C5.91711 15.2183 8.67261 14.7096 11.9378 14.7096Z" stroke="#F6F6F6" strokeWidth="1.5" strokeLinecap="round" strokeLinejoin="round"/>
<path fill-rule="evenodd" clip-rule="evenodd" d="M11.9378 11.9049C9.79645 11.9049 8.07953 10.188 8.07953 8.04575C8.07953 5.90442 9.79645 4.1875 11.9378 4.1875C14.0791 4.1875 15.796 5.90442 15.796 8.04575C15.796 10.188 14.0791 11.9049 11.9378 11.9049Z" stroke="#F6F6F6" strokeWidth="1.5" strokeLinecap="round" strokeLinejoin="round"/>
</svg>
