<svg width="21" height="17" viewBox="0 0 21 17" fill="none" xmlns="http://www.w3.org/2000/svg">
<path d="M20.0368 2.69542C19.9525 2.35742 19.7873 2.04488 19.5555 1.78461C19.3237 1.52434 19.0322 1.32409 18.7059 1.20102C15.5669 -0.0091662 10.5554 2.04243e-06 10.28 2.04243e-06C10.0046 2.04243e-06 4.99314 -0.0091662 1.85407 1.20102C1.52781 1.32409 1.23629 1.52434 1.00449 1.78461C0.772698 2.04488 0.607541 2.35742 0.523179 2.69542C0.284536 3.60306 0 5.27166 0 8.03125C0 10.7908 0.284536 12.4594 0.523179 13.3671C0.607541 13.7051 0.772698 14.0176 1.00449 14.2779C1.23629 14.5382 1.52781 14.7384 1.85407 14.8615C4.86464 16.0258 9.58243 16.0625 10.2158 16.0625H10.3443C10.9776 16.0625 15.6954 16.0258 18.7059 14.8615C19.0322 14.7384 19.3237 14.5382 19.5555 14.2779C19.7873 14.0176 19.9525 13.7051 20.0368 13.3671C20.2755 12.4594 20.56 10.7908 20.56 8.03125C20.56 5.27166 20.2755 3.60306 20.0368 2.69542ZM13.4191 8.3338L9.01336 11.2676C8.95493 11.3105 8.88397 11.3331 8.81143 11.3318C8.75063 11.3295 8.69108 11.3138 8.63704 11.2859C8.57837 11.2554 8.5293 11.2093 8.49528 11.1527C8.46126 11.096 8.44361 11.0311 8.44429 10.965V5.09746C8.44361 5.03141 8.46126 4.96646 8.49528 4.90982C8.5293 4.85318 8.57837 4.80706 8.63704 4.77658C8.69557 4.74539 8.76147 4.73062 8.82773 4.73385C8.89399 4.73708 8.95814 4.75818 9.01336 4.79491L13.4191 7.7287C13.4703 7.76091 13.5125 7.80555 13.5417 7.85846C13.5709 7.91137 13.5863 7.97082 13.5863 8.03125C13.5863 8.09168 13.5709 8.15113 13.5417 8.20404C13.5125 8.25695 13.4703 8.30159 13.4191 8.3338Z" fill="#33CC99"/>
</svg>
